<mxfile host="65bd71144e">
    <diagram id="I-ohrzxiSmzMCvaTVa4o" name="Page-1">
        <mxGraphModel dx="1758" dy="869" grid="1" gridSize="10" guides="1" tooltips="1" connect="1" arrows="1" fold="1" page="1" pageScale="1" pageWidth="850" pageHeight="1100" math="0" shadow="0">
            <root>
                <mxCell id="0"/>
                <mxCell id="1" parent="0"/>
                <mxCell id="2" value="Navbar" style="html=1;" vertex="1" parent="1">
                    <mxGeometry width="850" height="50" as="geometry"/>
                </mxCell>
                <mxCell id="3" value="about me section" style="html=1;" vertex="1" parent="1">
                    <mxGeometry x="110" y="80" width="630" height="190" as="geometry"/>
                </mxCell>
                <mxCell id="4" value="photo" style="html=1;" vertex="1" parent="1">
                    <mxGeometry x="340" y="310" width="190" height="150" as="geometry"/>
                </mxCell>
            </root>
        </mxGraphModel>
    </diagram>
</mxfile>